<svg xmlns="http://www.w3.org/2000/svg" width="26" height="26" viewBox="0 0 26 26">
  <g id="Google_Icon" data-name="Google Icon" transform="translate(-47 -620)">
    <rect id="Rectangle_11" data-name="Rectangle 11" width="26" height="26" transform="translate(47 620)" fill="#fff" opacity="0"/>
    <g id="google" transform="translate(48.956 621.915)">
      <path id="Path_116" data-name="Path 116" d="M276.9,211.479h-9.043a.723.723,0,0,0-.723.723v2.889a.723.723,0,0,0,.723.723h5.092a6.8,6.8,0,0,1-2.926,3.429L272.192,223a10.869,10.869,0,0,0,5.542-9.506,7.328,7.328,0,0,0-.125-1.42A.726.726,0,0,0,276.9,211.479Z" transform="translate(-255.564 -202.322)" fill="#167ee6"/>
      <path id="Path_117" data-name="Path 117" d="M44.006,337.224a6.746,6.746,0,0,1-5.836-3.377l-3.759,2.167a11.076,11.076,0,0,0,15.137,4.063v-.005l-2.171-3.759A6.7,6.7,0,0,1,44.006,337.224Z" transform="translate(-32.921 -319.391)" fill="#12b347"/>
      <path id="Path_118" data-name="Path 118" d="M261.542,394.543v-.005l-2.171-3.759a6.7,6.7,0,0,1-3.371.911v4.338A11.066,11.066,0,0,0,261.542,394.543Z" transform="translate(-244.915 -373.858)" fill="#0f993e"/>
      <path id="Path_119" data-name="Path 119" d="M4.338,133.656a6.7,6.7,0,0,1,.911-3.371L1.49,128.119a11.034,11.034,0,0,0,0,11.075l3.759-2.167A6.7,6.7,0,0,1,4.338,133.656Z" transform="translate(0 -122.571)" fill="#ffd500"/>
      <path id="Path_120" data-name="Path 120" d="M44.006,4.338A6.716,6.716,0,0,1,48.29,5.876a.72.72,0,0,0,.969-.044l2.047-2.047a.728.728,0,0,0-.042-1.065A11.061,11.061,0,0,0,34.411,5.548L38.17,7.714A6.746,6.746,0,0,1,44.006,4.338Z" transform="translate(-32.921)" fill="#ff4b26"/>
      <path id="Path_121" data-name="Path 121" d="M260.284,5.876a.72.72,0,0,0,.969-.044L263.3,3.785a.728.728,0,0,0-.042-1.065A11.052,11.052,0,0,0,256,0V4.338A6.716,6.716,0,0,1,260.284,5.876Z" transform="translate(-244.915)" fill="#d93f21"/>
    </g>
  </g>
</svg>
