<svg xmlns="http://www.w3.org/2000/svg" xmlns:xlink="http://www.w3.org/1999/xlink" width="107" height="107" viewBox="0 0 107 107">
  <defs>
    <filter id="Ellipse_" x="0" y="0" width="107" height="107" filterUnits="userSpaceOnUse">
      <feOffset dy="2" input="SourceAlpha"/>
      <feGaussianBlur stdDeviation="3" result="blur"/>
      <feFlood flood-opacity="0.071"/>
      <feComposite operator="in" in2="blur"/>
      <feComposite in="SourceGraphic"/>
    </filter>
  </defs>
  <g id="Group_8" data-name="Group 8" transform="translate(-1388 -560)">
    <g transform="matrix(1, 0, 0, 1, 1388, 560)" filter="url(#Ellipse_)">
      <circle id="Ellipse_2" data-name="Ellipse " cx="44.5" cy="44.5" r="44.5" transform="translate(9 7)" fill="#fff"/>
    </g>
    <g id="united-states_icon" data-name="united-states icon" transform="translate(1423 510.725)">
      <path id="Path_21" data-name="Path 21" d="M33.947,88.276H2.748A2.748,2.748,0,0,0,0,91.024V109.57a2.748,2.748,0,0,0,2.748,2.748h31.2A2.748,2.748,0,0,0,36.7,109.57V91.024A2.748,2.748,0,0,0,33.947,88.276Z" transform="translate(0 -0.001)" fill="#f5f5f5"/>
      <g id="Group_6" data-name="Group 6" transform="translate(0 88.275)">
        <path id="Path_22" data-name="Path 22" d="M2.109,90.125H38.5a2.749,2.749,0,0,0-2.6-1.849H4.706A2.749,2.749,0,0,0,2.109,90.125Z" transform="translate(-1.958 -88.276)" fill="#ff4b55"/>
        <rect id="Rectangle_29" data-name="Rectangle 29" width="36.695" height="1.849" transform="translate(0 7.397)" fill="#ff4b55"/>
        <rect id="Rectangle_30" data-name="Rectangle 30" width="36.695" height="1.849" transform="translate(0 3.698)" fill="#ff4b55"/>
        <path id="Path_23" data-name="Path 23" d="M0,244.315a.633.633,0,0,0,.633.633H36.7V243.1H0Z" transform="translate(0 -232.002)" fill="#ff4b55"/>
        <rect id="Rectangle_31" data-name="Rectangle 31" width="36.695" height="1.849" transform="translate(0 18.494)" fill="#ff4b55"/>
        <path id="Path_24" data-name="Path 24" d="M38.5,397.92H2.109a2.749,2.749,0,0,0,2.6,1.849h31.2A2.749,2.749,0,0,0,38.5,397.92Z" transform="translate(-1.958 -375.728)" fill="#ff4b55"/>
        <rect id="Rectangle_32" data-name="Rectangle 32" width="36.695" height="1.849" transform="translate(0 14.795)" fill="#ff4b55"/>
      </g>
      <path id="Path_25" data-name="Path 25" d="M.633,101.221H16.45a.633.633,0,0,0,.633-.633V88.908a.633.633,0,0,0-.633-.633H2.748A2.748,2.748,0,0,0,0,91.023v9.565A.633.633,0,0,0,.633,101.221Z" fill="#41479b"/>
      <g id="Group_7" data-name="Group 7" transform="translate(1.021 89.686)">
        <path id="Path_26" data-name="Path 26" d="M15.008,108.009l.14.42.443,0a.06.06,0,0,1,.035.108l-.356.263.134.422a.06.06,0,0,1-.092.067l-.36-.257-.36.257a.06.06,0,0,1-.092-.067l.134-.422-.356-.263a.06.06,0,0,1,.035-.108l.443,0,.14-.42A.06.06,0,0,1,15.008,108.009Z" transform="translate(-14.253 -107.968)" fill="#f5f5f5"/>
        <path id="Path_27" data-name="Path 27" d="M15.008,138.663l.14.42.443,0a.06.06,0,0,1,.035.108l-.356.263.134.422a.06.06,0,0,1-.092.067l-.36-.257-.36.257a.06.06,0,0,1-.092-.067l.134-.422-.356-.263a.06.06,0,0,1,.035-.108l.443,0,.14-.42A.06.06,0,0,1,15.008,138.663Z" transform="translate(-14.253 -136.426)" fill="#f5f5f5"/>
        <path id="Path_28" data-name="Path 28" d="M15.008,169.318l.14.42.443,0a.06.06,0,0,1,.035.108l-.356.263.134.422a.06.06,0,0,1-.092.066l-.36-.257-.36.257a.06.06,0,0,1-.092-.066l.134-.422-.356-.263a.06.06,0,0,1,.035-.108l.443,0,.14-.42A.06.06,0,0,1,15.008,169.318Z" transform="translate(-14.253 -164.883)" fill="#f5f5f5"/>
        <path id="Path_29" data-name="Path 29" d="M15.008,199.972l.14.42.443,0a.06.06,0,0,1,.035.108l-.356.263.134.422a.06.06,0,0,1-.092.067l-.36-.257-.36.257a.06.06,0,0,1-.092-.067l.134-.422-.356-.263a.06.06,0,0,1,.035-.108l.443,0,.14-.42A.06.06,0,0,1,15.008,199.972Z" transform="translate(-14.253 -193.34)" fill="#f5f5f5"/>
        <path id="Path_30" data-name="Path 30" d="M15.008,230.626l.14.42.443,0a.06.06,0,0,1,.035.108l-.356.263.134.422a.06.06,0,0,1-.092.066l-.36-.257-.36.257a.06.06,0,0,1-.092-.066l.134-.422-.356-.263a.06.06,0,0,1,.035-.108l.443,0,.14-.42A.06.06,0,0,1,15.008,230.626Z" transform="translate(-14.253 -221.798)" fill="#f5f5f5"/>
        <path id="Path_31" data-name="Path 31" d="M38.8,123.038l.14.42.443,0a.06.06,0,0,1,.035.108l-.356.263.134.422a.06.06,0,0,1-.092.067l-.36-.257-.36.257a.06.06,0,0,1-.092-.067l.134-.422-.356-.263a.06.06,0,0,1,.035-.108l.443,0,.14-.42A.06.06,0,0,1,38.8,123.038Z" transform="translate(-36.34 -121.92)" fill="#f5f5f5"/>
        <path id="Path_32" data-name="Path 32" d="M38.8,153.693l.14.42.443,0a.06.06,0,0,1,.035.108l-.356.263.134.422a.06.06,0,0,1-.092.067l-.36-.257-.36.257a.06.06,0,0,1-.092-.067l.134-.422-.356-.263a.06.06,0,0,1,.035-.108l.443,0,.14-.42A.06.06,0,0,1,38.8,153.693Z" transform="translate(-36.34 -150.378)" fill="#f5f5f5"/>
        <path id="Path_33" data-name="Path 33" d="M38.8,184.347l.14.42.443,0a.06.06,0,0,1,.035.108l-.356.263.134.422a.06.06,0,0,1-.092.066l-.36-.257-.36.257a.06.06,0,0,1-.092-.066l.134-.422-.356-.263a.06.06,0,0,1,.035-.108l.443,0,.14-.42A.06.06,0,0,1,38.8,184.347Z" transform="translate(-36.34 -178.835)" fill="#f5f5f5"/>
        <path id="Path_34" data-name="Path 34" d="M38.8,215l.14.42.443,0a.06.06,0,0,1,.035.108l-.356.263.134.422a.06.06,0,0,1-.092.067l-.36-.257-.36.257a.06.06,0,0,1-.092-.067l.134-.422-.356-.263a.06.06,0,0,1,.035-.108l.443,0,.14-.42A.06.06,0,0,1,38.8,215Z" transform="translate(-36.34 -207.292)" fill="#f5f5f5"/>
        <path id="Path_35" data-name="Path 35" d="M62.594,108.009l.14.42.443,0a.06.06,0,0,1,.035.108l-.356.263.134.422a.06.06,0,0,1-.092.067l-.36-.257-.36.257a.06.06,0,0,1-.092-.067l.134-.422-.356-.263a.06.06,0,0,1,.035-.108l.443,0,.14-.42A.06.06,0,0,1,62.594,108.009Z" transform="translate(-58.428 -107.968)" fill="#f5f5f5"/>
        <path id="Path_36" data-name="Path 36" d="M62.594,138.663l.14.42.443,0a.06.06,0,0,1,.035.108l-.356.263.134.422a.06.06,0,0,1-.092.067l-.36-.257-.36.257a.06.06,0,0,1-.092-.067l.134-.422-.356-.263a.06.06,0,0,1,.035-.108l.443,0,.14-.42A.06.06,0,0,1,62.594,138.663Z" transform="translate(-58.428 -136.425)" fill="#f5f5f5"/>
        <path id="Path_37" data-name="Path 37" d="M62.594,169.318l.14.42.443,0a.06.06,0,0,1,.035.108l-.356.263.134.422a.06.06,0,0,1-.092.066l-.36-.257-.36.257a.06.06,0,0,1-.092-.066l.134-.422-.356-.263a.06.06,0,0,1,.035-.108l.443,0,.14-.42A.06.06,0,0,1,62.594,169.318Z" transform="translate(-58.428 -164.883)" fill="#f5f5f5"/>
        <path id="Path_38" data-name="Path 38" d="M62.594,199.972l.14.42.443,0a.06.06,0,0,1,.035.108l-.356.263.134.422a.06.06,0,0,1-.092.067l-.36-.257-.36.257a.06.06,0,0,1-.092-.067l.134-.422-.356-.263a.06.06,0,0,1,.035-.108l.443,0,.14-.42A.06.06,0,0,1,62.594,199.972Z" transform="translate(-58.428 -193.34)" fill="#f5f5f5"/>
        <path id="Path_39" data-name="Path 39" d="M62.594,230.626l.14.42.443,0a.06.06,0,0,1,.035.108l-.356.263.134.422a.06.06,0,0,1-.092.066l-.36-.257-.36.257a.06.06,0,0,1-.092-.066l.134-.422-.356-.263a.06.06,0,0,1,.035-.108l.443,0,.14-.42A.06.06,0,0,1,62.594,230.626Z" transform="translate(-58.428 -221.797)" fill="#f5f5f5"/>
        <path id="Path_40" data-name="Path 40" d="M86.388,123.038l.14.42.443,0a.06.06,0,0,1,.035.108l-.356.263.134.422a.06.06,0,0,1-.092.067l-.36-.257-.36.257a.06.06,0,0,1-.092-.067l.134-.422-.356-.263a.06.06,0,0,1,.035-.108l.443,0,.14-.42A.06.06,0,0,1,86.388,123.038Z" transform="translate(-80.517 -121.92)" fill="#f5f5f5"/>
        <path id="Path_41" data-name="Path 41" d="M86.388,153.693l.14.42.443,0a.06.06,0,0,1,.035.108l-.356.263.134.422a.06.06,0,0,1-.092.067l-.36-.257-.36.257a.06.06,0,0,1-.092-.067l.134-.422-.356-.263a.06.06,0,0,1,.035-.108l.443,0,.14-.42A.06.06,0,0,1,86.388,153.693Z" transform="translate(-80.517 -150.378)" fill="#f5f5f5"/>
        <path id="Path_42" data-name="Path 42" d="M86.388,184.347l.14.42.443,0a.06.06,0,0,1,.035.108l-.356.263.134.422a.06.06,0,0,1-.092.066l-.36-.257-.36.257a.06.06,0,0,1-.092-.066l.134-.422-.356-.263a.06.06,0,0,1,.035-.108l.443,0,.14-.42A.06.06,0,0,1,86.388,184.347Z" transform="translate(-80.517 -178.835)" fill="#f5f5f5"/>
        <path id="Path_43" data-name="Path 43" d="M86.388,215l.14.42.443,0a.06.06,0,0,1,.035.108l-.356.263.134.422a.06.06,0,0,1-.092.067l-.36-.257-.36.257a.06.06,0,0,1-.092-.067l.134-.422-.356-.263a.06.06,0,0,1,.035-.108l.443,0,.14-.42A.06.06,0,0,1,86.388,215Z" transform="translate(-80.517 -207.292)" fill="#f5f5f5"/>
        <path id="Path_44" data-name="Path 44" d="M110.18,108.009l.14.42.443,0a.06.06,0,0,1,.035.108l-.356.263.134.422a.06.06,0,0,1-.092.067l-.36-.257-.36.257a.06.06,0,0,1-.092-.067l.134-.422-.356-.263a.06.06,0,0,1,.035-.108l.443,0,.14-.42A.06.06,0,0,1,110.18,108.009Z" transform="translate(-102.604 -107.968)" fill="#f5f5f5"/>
        <path id="Path_45" data-name="Path 45" d="M110.18,138.663l.14.42.443,0a.06.06,0,0,1,.035.108l-.356.263.134.422a.06.06,0,0,1-.092.067l-.36-.257-.36.257a.06.06,0,0,1-.092-.067l.134-.422-.356-.263a.06.06,0,0,1,.035-.108l.443,0,.14-.42A.06.06,0,0,1,110.18,138.663Z" transform="translate(-102.604 -136.425)" fill="#f5f5f5"/>
        <path id="Path_46" data-name="Path 46" d="M110.18,169.317l.14.42.443,0a.06.06,0,0,1,.035.108l-.356.263.134.422a.06.06,0,0,1-.092.066l-.36-.258-.36.257a.06.06,0,0,1-.092-.067l.134-.422-.356-.263a.06.06,0,0,1,.035-.108l.443,0,.14-.42A.06.06,0,0,1,110.18,169.317Z" transform="translate(-102.604 -164.883)" fill="#f5f5f5"/>
        <path id="Path_47" data-name="Path 47" d="M110.18,199.972l.14.42.443,0a.06.06,0,0,1,.035.108l-.356.263.134.422a.06.06,0,0,1-.092.067l-.36-.257-.36.257a.06.06,0,0,1-.092-.067l.134-.422-.356-.263a.06.06,0,0,1,.035-.108l.443,0,.14-.42A.06.06,0,0,1,110.18,199.972Z" transform="translate(-102.604 -193.34)" fill="#f5f5f5"/>
        <path id="Path_48" data-name="Path 48" d="M110.18,230.626l.14.42.443,0a.06.06,0,0,1,.035.108l-.356.263.134.422a.06.06,0,0,1-.092.066l-.36-.257-.36.257a.06.06,0,0,1-.092-.066l.134-.422-.356-.263a.06.06,0,0,1,.035-.108l.443,0,.14-.42A.06.06,0,0,1,110.18,230.626Z" transform="translate(-102.604 -221.797)" fill="#f5f5f5"/>
        <path id="Path_49" data-name="Path 49" d="M133.974,123.038l.14.42.443,0a.06.06,0,0,1,.035.108l-.356.263.134.422a.06.06,0,0,1-.092.067l-.36-.257-.36.257a.06.06,0,0,1-.092-.067l.134-.422-.356-.263a.06.06,0,0,1,.035-.108l.443,0,.14-.42A.06.06,0,0,1,133.974,123.038Z" transform="translate(-124.692 -121.92)" fill="#f5f5f5"/>
        <path id="Path_50" data-name="Path 50" d="M133.974,153.693l.14.42.443,0a.06.06,0,0,1,.035.108l-.356.263.134.422a.06.06,0,0,1-.092.067l-.36-.257-.36.257a.06.06,0,0,1-.092-.067l.134-.422-.356-.263a.06.06,0,0,1,.035-.108l.443,0,.14-.42A.06.06,0,0,1,133.974,153.693Z" transform="translate(-124.692 -150.378)" fill="#f5f5f5"/>
        <path id="Path_51" data-name="Path 51" d="M133.974,184.347l.14.42.443,0a.06.06,0,0,1,.035.108l-.356.263.134.422a.06.06,0,0,1-.092.066l-.36-.257-.36.257a.06.06,0,0,1-.092-.066l.134-.422-.356-.263a.06.06,0,0,1,.035-.108l.443,0,.14-.42A.06.06,0,0,1,133.974,184.347Z" transform="translate(-124.692 -178.835)" fill="#f5f5f5"/>
        <path id="Path_52" data-name="Path 52" d="M133.974,215l.14.42.443,0a.06.06,0,0,1,.035.108l-.356.263.134.422a.06.06,0,0,1-.092.067l-.36-.257-.36.257a.06.06,0,0,1-.092-.067l.134-.422-.356-.263a.06.06,0,0,1,.035-.108l.443,0,.14-.42A.06.06,0,0,1,133.974,215Z" transform="translate(-124.692 -207.292)" fill="#f5f5f5"/>
        <path id="Path_53" data-name="Path 53" d="M157.768,108.009l.14.42.443,0a.06.06,0,0,1,.035.108l-.356.263.134.422a.06.06,0,0,1-.092.067l-.36-.257-.36.257a.06.06,0,0,1-.092-.067l.134-.422-.356-.263a.06.06,0,0,1,.035-.108l.443,0,.14-.42A.06.06,0,0,1,157.768,108.009Z" transform="translate(-146.781 -107.968)" fill="#f5f5f5"/>
        <path id="Path_54" data-name="Path 54" d="M157.768,138.663l.14.42.443,0a.06.06,0,0,1,.035.108l-.356.263.134.422a.06.06,0,0,1-.092.067l-.36-.257-.36.257a.06.06,0,0,1-.092-.067l.134-.422-.356-.263a.06.06,0,0,1,.035-.108l.443,0,.14-.42A.06.06,0,0,1,157.768,138.663Z" transform="translate(-146.781 -136.425)" fill="#f5f5f5"/>
        <path id="Path_55" data-name="Path 55" d="M157.768,169.318l.14.42.443,0a.06.06,0,0,1,.035.108l-.356.263.134.422a.06.06,0,0,1-.092.066l-.36-.257-.36.257a.06.06,0,0,1-.092-.066l.134-.422-.356-.263a.06.06,0,0,1,.035-.108l.443,0,.14-.42A.06.06,0,0,1,157.768,169.318Z" transform="translate(-146.781 -164.883)" fill="#f5f5f5"/>
        <path id="Path_56" data-name="Path 56" d="M157.768,199.972l.14.42.443,0a.06.06,0,0,1,.035.108l-.356.263.134.422a.06.06,0,0,1-.092.067l-.36-.257-.36.257a.06.06,0,0,1-.092-.067l.134-.422-.356-.263a.06.06,0,0,1,.035-.108l.443,0,.14-.42A.06.06,0,0,1,157.768,199.972Z" transform="translate(-146.781 -193.34)" fill="#f5f5f5"/>
        <path id="Path_57" data-name="Path 57" d="M157.768,230.626l.14.42.443,0a.06.06,0,0,1,.035.108l-.356.263.134.422a.06.06,0,0,1-.092.066l-.36-.257-.36.257a.06.06,0,0,1-.092-.066l.134-.422-.356-.263a.06.06,0,0,1,.035-.108l.443,0,.14-.42A.06.06,0,0,1,157.768,230.626Z" transform="translate(-146.781 -221.797)" fill="#f5f5f5"/>
        <path id="Path_58" data-name="Path 58" d="M181.561,123.038l.14.42.443,0a.06.06,0,0,1,.035.108l-.356.263.134.422a.06.06,0,0,1-.092.067l-.36-.257-.36.257a.06.06,0,0,1-.092-.067l.134-.422-.356-.263a.06.06,0,0,1,.035-.108l.443,0,.14-.42A.06.06,0,0,1,181.561,123.038Z" transform="translate(-168.869 -121.92)" fill="#f5f5f5"/>
        <path id="Path_59" data-name="Path 59" d="M181.561,153.693l.14.42.443,0a.06.06,0,0,1,.035.108l-.356.263.134.422a.06.06,0,0,1-.092.067l-.36-.257-.36.257a.06.06,0,0,1-.092-.067l.134-.422-.356-.263a.06.06,0,0,1,.035-.108l.443,0,.14-.42A.06.06,0,0,1,181.561,153.693Z" transform="translate(-168.869 -150.378)" fill="#f5f5f5"/>
        <path id="Path_60" data-name="Path 60" d="M181.561,184.347l.14.42.443,0a.06.06,0,0,1,.035.108l-.356.263.134.422a.06.06,0,0,1-.092.066l-.36-.257-.36.257a.06.06,0,0,1-.092-.066l.134-.422-.356-.263a.06.06,0,0,1,.035-.108l.443,0,.14-.42A.06.06,0,0,1,181.561,184.347Z" transform="translate(-168.869 -178.835)" fill="#f5f5f5"/>
        <path id="Path_61" data-name="Path 61" d="M181.561,215l.14.42.443,0a.06.06,0,0,1,.035.108l-.356.263.134.422a.06.06,0,0,1-.092.067l-.36-.257-.36.257a.06.06,0,0,1-.092-.067l.134-.422-.356-.263a.06.06,0,0,1,.035-.108l.443,0,.14-.42A.06.06,0,0,1,181.561,215Z" transform="translate(-168.869 -207.292)" fill="#f5f5f5"/>
        <path id="Path_62" data-name="Path 62" d="M205.355,108.009l.14.42.443,0a.06.06,0,0,1,.035.108l-.356.263.134.422a.06.06,0,0,1-.092.067l-.36-.257-.36.257a.06.06,0,0,1-.092-.067l.134-.422-.356-.263a.06.06,0,0,1,.035-.108l.443,0,.14-.42A.06.06,0,0,1,205.355,108.009Z" transform="translate(-190.957 -107.968)" fill="#f5f5f5"/>
        <path id="Path_63" data-name="Path 63" d="M205.355,138.663l.14.42.443,0a.06.06,0,0,1,.035.108l-.356.263.134.422a.06.06,0,0,1-.092.067l-.36-.257-.36.257a.06.06,0,0,1-.092-.067l.134-.422-.356-.263a.06.06,0,0,1,.035-.108l.443,0,.14-.42A.06.06,0,0,1,205.355,138.663Z" transform="translate(-190.957 -136.425)" fill="#f5f5f5"/>
        <path id="Path_64" data-name="Path 64" d="M205.355,169.318l.14.42.443,0a.06.06,0,0,1,.035.108l-.356.263.134.422a.06.06,0,0,1-.092.066l-.36-.257-.36.257a.06.06,0,0,1-.092-.066l.134-.422-.356-.263a.06.06,0,0,1,.035-.108l.443,0,.14-.42A.06.06,0,0,1,205.355,169.318Z" transform="translate(-190.957 -164.883)" fill="#f5f5f5"/>
        <path id="Path_65" data-name="Path 65" d="M205.355,199.972l.14.42.443,0a.06.06,0,0,1,.035.108l-.356.263.134.422a.06.06,0,0,1-.092.067L205.3,201l-.36.257a.06.06,0,0,1-.092-.067l.134-.422-.356-.263a.06.06,0,0,1,.035-.108l.443,0,.14-.42A.06.06,0,0,1,205.355,199.972Z" transform="translate(-190.957 -193.34)" fill="#f5f5f5"/>
        <path id="Path_66" data-name="Path 66" d="M205.355,230.626l.14.42.443,0a.06.06,0,0,1,.035.108l-.356.263.134.422a.06.06,0,0,1-.092.066l-.36-.257-.36.257a.06.06,0,0,1-.092-.066l.134-.422-.356-.263a.06.06,0,0,1,.035-.108l.443,0,.14-.42A.06.06,0,0,1,205.355,230.626Z" transform="translate(-190.957 -221.797)" fill="#f5f5f5"/>
      </g>
    </g>
  </g>
</svg>
