<svg id="humaaans_sitting-1" data-name="humaaans/sitting-1" xmlns="http://www.w3.org/2000/svg" width="211" height="251.644" viewBox="0 0 211 251.644">
  <g id="A-Human_Sitting" data-name="A-Human/Sitting" transform="translate(0)">
    <g id="Head_Front_Airy" data-name="Head/Front/Airy">
      <g id="Head" transform="translate(83.99 25.948)">
        <path id="Path_175" data-name="Path 175" d="M5.642,23.552C2.5,19.858.366,15.332.722,10.26,1.747-4.353,22.089-1.138,26.046,6.237s3.487,26.084-1.627,27.4c-2.039.526-6.384-.762-10.806-3.427l2.776,19.636H0Z" fill="#ffe4cb"/>
      </g>
      <path id="hair" d="M100.7,23.685c-2.16-.354-7.976-.6-9.048-.6-.685,0-1.428.157-1.834-.473-.332-.515-.211-1.387-.31-1.985-.115-.695-.279-1.381-.444-2.065a20.991,20.991,0,0,0-2.18-5.537,17.019,17.019,0,0,0-8.067-7.3A25.9,25.9,0,0,0,66.564,4.04c-4.4.356-8.375,1.807-12.525,3.173A26.25,26.25,0,0,1,41.805,8.391c-4.168-.64-7.317-2.9-10.832-5.043A20.179,20.179,0,0,0,19.007.047,23.045,23.045,0,0,0,8.092,4.185a17.808,17.808,0,0,0-7.039,7.986C-.487,15.9-.485,20,2.047,23.3,5.717,28.083,12.53,29.32,18.2,29.2a30.86,30.86,0,0,0,9.594-1.758c4.128-1.452,7.7-3.913,11.558-5.91A30.075,30.075,0,0,1,45,19.268c1.906-.538,3.782-.785,5.508.366a26.01,26.01,0,0,0,5.549,3.176,17.9,17.9,0,0,0,6.259,1.124c4.152-.032,8.245-1.326,12.278-2.192,3.289-.707,6.807-1.411,10.16-.732,1.4.283,3.442.869,3.948,2.323-8.5,1.541-11.845,12.059-9.447,19.78,1.294,4.167,9.072,9.039,12.1,6.848,1.916-1.388.753-3.21,0-4.413-1.442-2.3-1.935-5.262.733-6.866,2.3-1.383,4.72,1.9,4.766,1.9.632-.05,6.1-3.14,9.862-7.65,3.714.22,4.278-2.229,3.391-4.232S103.68,24.174,100.7,23.685Z" transform="translate(0)" fill="#b29070"/>
    </g>
    <g id="Bottom_Sitting_Sweat-Pants" data-name="Bottom/Sitting/Sweat-Pants" transform="translate(24.583 132.472)">
      <g id="Objects_Seat_Ball" data-name="Objects/Seat/Ball" transform="translate(0 18.437)">
        <ellipse id="Ballsy-Ball" cx="52.5" cy="50.5" rx="52.5" ry="50.5" transform="translate(0.417 -0.265)" fill="#fafafa"/>
      </g>
      <path id="Skin" d="M104.046,89.107C95.3,69.743,88.97,52.881,86.43,43.985c-4.349-15.233-7.657-28.636-8.493-33.642C75.943-1.594,93.275-2.289,95.566,3.643c3.467,8.979,9.521,38.479,16.794,83.038ZM2.561,28.336c8.027-3.173,36.139-13.1,49.7-15.912,3.9-.807,7.672-1.557,11.223-2.235C74.033,8.175,79.5,27.212,69.337,28.675,44.025,32.318,8.143,36.08,5.072,36.5.768,37.093-2.484,30.33,2.561,28.336Z" transform="translate(47.894 21.965)" fill="#ffe4cb"/>
      <path id="Leg-Back" d="M43.42,26.915,0,4.812V0H5.164q63.011,16.056,64.4,20.58.015.049.027.1l.062.084C77.975,32.21,82.961,88.106,84.6,92.291l-15.952,2.38c-6.1-22.628-25.626-38.392-25.107-65.494A8.879,8.879,0,0,1,43.42,26.915Z" transform="translate(74.43 0)" fill="#fcb2b2"/>
      <path id="Leg-Front" d="M34.336,40.043c-3.973-.8-7.631-1.505-10.762-2.054C3.352,34.442-2.544,23.617.942,0H38.2c6.086,1.748,37.715,15.012,54.126,22.067,10.861,4.669,7.438,21.5,1.287,25.882a.6.6,0,0,1-.341.533C60.184,62.2,34.009,55,25.265,57.3L21.221,44.541Z" transform="translate(43.702 0)" fill="#ffbcbc"/>
      <g id="Accessories_Shoe_Flat-Sneaker" data-name="Accessories/Shoe/Flat-Sneaker" transform="matrix(0.438, 0.899, -0.899, 0.438, 56.422, 45.426)">
        <path id="shoe" d="M1.146,4.145A14.662,14.662,0,0,0,0,8.722a34.263,34.263,0,0,0,.615,5.391H39.129Q40.63,9.15,37.4,8.754T32.022,8.04L14.121.059a.683.683,0,0,0-.9.346l-.008.018L12.061,3.214a12.28,12.28,0,0,1-4.866,1.4,11.02,11.02,0,0,1-4.2-1.229h0a1.366,1.366,0,0,0-1.811.672Q1.163,4.1,1.146,4.145Z" transform="translate(0 0)" fill="#e4e4e4"/>
      </g>
      <g id="Accessories_Shoe_Flat-Sneaker-2" data-name="Accessories/Shoe/Flat-Sneaker" transform="translate(146.812 103.337)">
        <path id="shoe-2" data-name="shoe" d="M1.146,4.145A14.662,14.662,0,0,0,0,8.722a34.263,34.263,0,0,0,.615,5.391H39.129q1.5-4.963-1.733-5.359T32.022,8.04L14.121.059a.683.683,0,0,0-.9.346l-.008.018L12.061,3.214a12.28,12.28,0,0,1-4.866,1.4,11.02,11.02,0,0,1-4.2-1.229h0a1.366,1.366,0,0,0-1.811.672Q1.163,4.1,1.146,4.145Z" transform="translate(0 0)" fill="#e4e4e4"/>
      </g>
    </g>
    <g id="Body_Jacket-2" data-name="Body/Jacket-2" transform="translate(7.511 60.773)">
      <path id="Skin-2" data-name="Skin" d="M133.838,20.907l24.743-10.866A58.631,58.631,0,0,1,171.137.193c1.207-.384,3.269-.5,1.069,2.713s-4.37,6.692-3.491,7.819,3.426-.117,4.432,1.715q1.006,1.831-12.878,4.382L141.739,31.028ZM33.807,23.9,47.8,26.676q-21.108,39.337-22.64,41.7c-2.3,3.54-.154,10.029.638,13.446-4.968,1.156-3.009-6.321-9.3-4.759-5.738,1.425-10.6,5.082-15.954.15-.658-.606-1.139-2.5,1.1-3.474C7.24,71.315,15.5,66.78,16.834,65.019Q19.572,61.418,33.807,23.9Z" transform="translate(0 32.094)" fill="#ffe4cb"/>
      <path id="Coat-Back" d="M0,1.524,5.794,0c13.9,11.307,21.74,40.708,30.624,43.914,8.4,3.03,19.527-1.587,32.7-7.659L74.1,45.2C62.91,59.649,37.569,73.249,26.332,67.734,8.367,58.916,1.206,22.435,0,1.524Z" transform="translate(85.963 2.124) rotate(5)" fill="#bcf5ff"/>
      <path id="Shirt" d="M0,77.845H52.246c2.387,0,1.938-3.447,1.592-5.187C49.855,52.582,34.307,30.941,34.307,2.363L19.237,0C6.772,20.047,2.462,44.73,0,77.845Z" transform="translate(60.091 0)" fill="#fff"/>
      <path id="Coat-Front" d="M37.808,57.518Q21.832,86.336,10.951,99.013L0,96.868Q10.581,31.245,61.284,0h5.967Q87.545,69.176,78.44,92.184H31.411a171.687,171.687,0,0,1,6.4-34.666Z" transform="translate(17.071 0)" fill="#bcf5ff"/>
    </g>
  </g>
</svg>
