<svg xmlns="http://www.w3.org/2000/svg" width="670.201" height="658.18" viewBox="0 0 670.201 658.18">
  <g id="Symbols" transform="translate(0 13.731)">
    <g id="Scene_Plants" data-name="Scene/Plants" transform="translate(0 -13.731)">
      <g id="Top-Leaves" transform="translate(0 0)">
        <path id="Leaf" d="M217.76,356.029c.652-28.463-11.009-54.695-23.916-79.453-25.128-48.2-37.7-77.033-33.634-134.274,2.39-33.664,5.245-69.233-11.938-99.8C135.762,20.238,109.519-3.577,81.807.448,37.94,10.44,13.45,52.238,4.061,93.741-7.575,145.18,5.75,183.558,44.593,216.518c21.888,18.567,34.234,37.693,40.2,65.969,4.777,22.612,3.42,48.543,11.59,70.288,12.214,32.508,34.267,52.36,67.438,58.4-11.97-64.435-28.786-131.013-55.75-190.75-2.42-5.911-19.814-31.179-12.576-37.561,7.972-7.027,21.129,33.374,21.025,33.122,7.643,17.953,14.092,36.487,20.291,55.1-.033.005-.069,0-.1.008q9.6,28.664,18.589,57.849c2.313,8.153,4.478,16.353,6.4,24.662,2.823,12.193,3.157,44.3,11.162,53.837a17.261,17.261,0,0,0,5.212,4.346c3.206,13.445,6.2,26.92,8.822,40.422,6.849,35.265,10.809,71.437,6.369,107.3-1.3,10.466-14.612,46.865-10.2,56.158,8.065,17,12.6-9.214,14.322-17.01,14.231-64.572,9.088-125.194-6.44-188.412,14.275-9.833,26.547-42.678,26.813-54.21" transform="translate(271.084 67.3) rotate(-18)" fill="#f2f2f2"/>
        <path id="Leaf-2" data-name="Leaf" d="M88.874,303.649c-20.832-3.047-40.5-29.377-50.2-46.933-12.006-21.723-20.38-46.509-26.689-70.372C1.593,147.037.189,103.408.06,63.15.045,58.3-.968-.96,5.961.012c6.864.963,2.517,62.473,3.1,75.21,1.246,27.182-.617,53.99,5.759,80.827,6.6,27.789,18.7,53.977,34,77.98,1.963,3.08,6.117,14.533,10.836,11.888,4.615-2.587-8.17-17.844-9.985-20.809a262.769,262.769,0,0,1-19.4-38.535A203.056,203.056,0,0,1,15.1,108.6c15.854-2.434,29.667,6.849,34.985,22.319,4.595,13.371,5.044,28.924,10.263,41.566a61.668,61.668,0,0,0,16.306,22.353c18.447,16.49,37.7,20.615,43.2,47.984,4.311,21.455-1.042,65.186-30.987,60.826" transform="translate(450.211 455.951) rotate(122)" fill="#f2f2f2"/>
        <path id="Leaf-Me-Alone_" data-name="Leaf-Me-Alone!" d="M6.445,43.848H0A215.073,215.073,0,0,0,2.422,68.281C7.6,98.6,23.8,143.123,59.332,148.044a92.6,92.6,0,0,0,11.973-.125,21.762,21.762,0,0,0,9.136,2.668c30.25,2.206,64.032-21.936,78.623-47.06,11.763-20.256,9.781-46.856,2.516-68.376C156.714,20.744,146.1.2,128.388,0c-22.154-.251-23.223,26.837-23.651,42.673-.569,21.053-3.259,39.393-20.028,53.743C80.8,99.76,76.529,102.7,72.581,106c-6.182,5.16-13.013,10.443-13.809,18.98-1.1,11.777,5.621,13.9,15.881,11.709,1.749-.372,19.368-8.194,16.759-2.012-.8,1.888-3.705,3.385-7.377,4.506-9.5,1.022-20.831,2.208-24.089,1.5-35.153-7.629-48.84-55.8-52.475-86.406-.412-3.466-.74-6.943-1.027-10.426Z" transform="translate(167.458 262.352) rotate(180)" fill="#f2f2f2"/>
      </g>
    </g>
  </g>
</svg>
